<svg width="160" height="161" viewBox="0 0 160 161" fill="none" xmlns="http://www.w3.org/2000/svg">
<path d="M47.2477 139.739C41.0544 132.983 34.1663 127.063 26.8693 121.585C21.2214 117.342 15.8184 112.749 10.8239 107.628C9.54444 106.338 8.14229 105.181 6.82192 103.935C6.73938 103.852 6.61556 103.727 6.49212 103.688C4.01687 101.449 4.33174 98.3513 7.28238 96.6306C9.45456 95.4056 11.5858 94.2248 13.8001 93.213C23.518 88.7531 33.527 85.099 43.5369 81.6164C73.0338 71.4854 102.991 63.3557 133.326 56.7153C136.897 55.9618 140.469 55.3797 144.082 54.8393C145.478 54.6247 146.835 54.7114 148.231 54.6683C148.478 54.6607 148.807 54.7363 149.095 54.7703C153.042 55.4203 154.536 58.7192 152.498 62.3844C151.927 63.4313 151.192 64.3975 150.415 65.322C146.207 70.5553 141.503 75.2892 136.675 79.8983C128.37 87.8311 119.981 95.5949 111.717 103.569C104.108 110.923 96.9109 118.693 90.1269 126.879C84.8551 133.26 79.7483 139.808 74.4769 146.275C72.9238 148.124 71.2882 149.89 69.4871 151.403C66.8265 153.673 63.8281 153.894 60.8216 152.314C59.4627 151.627 58.1438 150.724 57.0711 149.728C54.5951 147.317 52.2826 144.73 49.8884 142.231C49.022 141.443 48.1144 140.613 47.2477 139.739Z" fill="#191919" fill-opacity="0.9"/>
<path d="M50.9763 130.868C44.6872 123.447 37.1751 117.544 29.5217 111.794C28.0005 110.654 26.6206 109.361 25.1936 108.119C23.3858 106.493 23.2801 104.42 23.9785 102.176C24.2118 101.526 24.8239 100.866 25.4375 100.501C26.4758 99.877 27.5623 99.3997 28.6964 98.9703C33.6115 97.2416 38.4795 95.5636 43.3945 93.8349C53.8864 90.1598 64.3772 86.2871 75.0124 82.8549C85.9788 79.3633 97.0895 76.3121 108.104 73.0661C114.864 71.0349 121.672 68.9529 128.432 66.9217C128.81 66.8115 129.283 66.6985 129.709 66.6363C131.128 66.4949 132.316 67.2006 132.843 68.4202C133.37 69.6398 133.094 71.1306 132.01 72.1021C130.125 73.8388 128.145 75.4795 125.975 76.8295C122.058 79.2696 118.284 82.0513 114.606 84.929C108.429 89.71 102.347 94.5871 96.3128 99.611C91.1273 103.918 86.085 108.467 80.9952 112.968C74.1619 119.054 67.3285 125.14 60.4952 131.225C59.8826 131.787 59.2224 132.301 58.5623 132.815C57.0997 133.798 55.6324 133.891 54.1594 132.898C53.1142 132.237 52.0215 131.529 50.9763 130.868Z" fill="#EB511E"/>
</svg>
