<svg width="78" height="82" viewBox="0 0 78 82" fill="none" xmlns="http://www.w3.org/2000/svg">
<path d="M26.95 49C24.5167 52.2 20.9667 53.8 16.3 53.8C11.6333 53.8 8.08333 52.2 5.65 49C3.25 45.8 2.05 41.2 2.05 35.2C2.05 29.2 3.25 24.6 5.65 21.4C8.08333 18.2 11.6333 16.6 16.3 16.6C20.9667 16.6 24.5167 18.2 26.95 21.4C29.3833 24.6 30.6 29.2 30.6 35.2C30.6 41.2 29.3833 45.8 26.95 49ZM16.3 48.1C21.1333 48.1 23.55 43.8 23.55 35.2C23.55 26.6 21.1333 22.3 16.3 22.3C11.5 22.3 9.1 26.6 9.1 35.2C9.1 43.8 11.5 48.1 16.3 48.1ZM42.9418 17.4H48.2918V53H41.5418V29H33.3418V24.25L34.1418 24.2C36.7418 24.0333 38.7251 23.45 40.0918 22.45C41.4918 21.4167 42.4418 19.7333 42.9418 17.4Z" fill="#191919"/>
<path fill-rule="evenodd" clip-rule="evenodd" d="M12.609 66.4415C6.57466 66.4415 3.85894 73.1924 9.13454 76.1217C15.8701 79.8617 23.6769 82.0001 32.0001 82.0001C57.4052 82.0001 78.0001 62.0768 78.0001 37.5001C78.0001 29.5956 75.8697 22.1724 72.134 15.7387C69.1335 10.5711 62.4411 13.351 62.4411 19.3265V59.4415C62.4411 63.3075 59.3071 66.4415 55.4411 66.4415H12.609Z" fill="#CB2639" fill-opacity="0.4"/>
</svg>
