<svg width="78" height="82" viewBox="0 0 78 82" fill="none" xmlns="http://www.w3.org/2000/svg">
<path d="M26.95 49C24.5167 52.2 20.9667 53.8 16.3 53.8C11.6333 53.8 8.08333 52.2 5.65 49C3.25 45.8 2.05 41.2 2.05 35.2C2.05 29.2 3.25 24.6 5.65 21.4C8.08333 18.2 11.6333 16.6 16.3 16.6C20.9667 16.6 24.5167 18.2 26.95 21.4C29.3833 24.6 30.6 29.2 30.6 35.2C30.6 41.2 29.3833 45.8 26.95 49ZM16.3 48.1C21.1333 48.1 23.55 43.8 23.55 35.2C23.55 26.6 21.1333 22.3 16.3 22.3C11.5 22.3 9.1 26.6 9.1 35.2C9.1 43.8 11.5 48.1 16.3 48.1ZM40.9941 47.3H59.3441V53H33.4441L33.5941 50.35C33.7275 47.6167 34.2941 45.1667 35.2941 43C36.5275 40.3 39.0775 38.0667 42.9441 36.3L46.4441 34.5C48.5108 33.5 49.9775 32.4833 50.8441 31.45C51.7108 30.4167 52.1441 29.1333 52.1441 27.6C52.1441 25.9667 51.6275 24.6833 50.5941 23.75C49.5608 22.7833 48.1275 22.3 46.2941 22.3C42.1941 22.3 40.1441 24.4667 40.1441 28.8H33.6441C33.6108 24.9667 34.6941 21.9833 36.8941 19.85C39.1275 17.6833 42.3275 16.6 46.4941 16.6C50.3275 16.6 53.3608 17.5667 55.5941 19.5C57.8275 21.4333 58.9441 23.9667 58.9441 27.1C58.9441 29.8 58.1941 32.1 56.6941 34C55.1941 35.8667 52.8108 37.6167 49.5441 39.25L46.2441 41C44.3775 42 43.0608 42.95 42.2941 43.85C41.5608 44.7167 41.1275 45.8667 40.9941 47.3Z" fill="#191919"/>
<path fill-rule="evenodd" clip-rule="evenodd" d="M12.609 66.4415C6.57467 66.4415 3.85894 73.1924 9.13454 76.1217C15.8701 79.8617 23.6769 82.0001 32.0001 82.0001C57.4052 82.0001 78.0001 62.0768 78.0001 37.5001C78.0001 29.5956 75.8697 22.1724 72.134 15.7387C69.1335 10.5711 62.4411 13.351 62.4411 19.3265V59.4415C62.4411 63.3075 59.3071 66.4415 55.4411 66.4415H12.609Z" fill="#FF7B38" fill-opacity="0.4"/>
</svg>
