<svg width="78" height="82" viewBox="0 0 78 82" fill="none" xmlns="http://www.w3.org/2000/svg">
<path d="M26.95 49C24.5167 52.2 20.9667 53.8 16.3 53.8C11.6333 53.8 8.08333 52.2 5.65 49C3.25 45.8 2.05 41.2 2.05 35.2C2.05 29.2 3.25 24.6 5.65 21.4C8.08333 18.2 11.6333 16.6 16.3 16.6C20.9667 16.6 24.5167 18.2 26.95 21.4C29.3833 24.6 30.6 29.2 30.6 35.2C30.6 41.2 29.3833 45.8 26.95 49ZM16.3 48.1C21.1333 48.1 23.55 43.8 23.55 35.2C23.55 26.6 21.1333 22.3 16.3 22.3C11.5 22.3 9.1 26.6 9.1 35.2C9.1 43.8 11.5 48.1 16.3 48.1ZM55.0348 34C56.9014 34.8 58.3681 35.9667 59.4348 37.5C60.5348 39 61.0848 40.7667 61.0848 42.8C61.0848 46.1 59.8848 48.75 57.4848 50.75C55.0514 52.7833 51.8014 53.8 47.7348 53.8C43.2014 53.8 39.7348 52.7 37.3348 50.5C34.9681 48.2667 33.7848 45.1667 33.7848 41.2H40.3348C40.4348 45.8 42.8348 48.1 47.5348 48.1C49.5681 48.1 51.1681 47.6 52.3348 46.6C53.5014 45.6 54.0848 44.25 54.0848 42.55C54.0848 40.7167 53.4848 39.3 52.2848 38.3C51.0848 37.3 49.4181 36.8 47.2848 36.8H44.6348V31.85H47.2348C51.4014 31.85 53.4848 30.2 53.4848 26.9C53.4848 25.4 52.9514 24.2333 51.8848 23.4C50.8181 22.5333 49.3514 22.1 47.4848 22.1C43.4514 22.1 41.3348 23.9833 41.1348 27.75H34.6348C34.7014 24.1833 35.8348 21.4333 38.0348 19.5C40.2681 17.5667 43.4348 16.6 47.5348 16.6C51.3681 16.6 54.4014 17.4833 56.6348 19.25C58.9014 20.9833 60.0348 23.35 60.0348 26.35C60.0348 29.75 58.3681 32.3 55.0348 34Z" fill="#191919"/>
<path fill-rule="evenodd" clip-rule="evenodd" d="M12.609 66.4415C6.57467 66.4415 3.85894 73.1924 9.13454 76.1217C15.8701 79.8617 23.6769 82.0001 32.0001 82.0001C57.4052 82.0001 78.0001 62.0768 78.0001 37.5001C78.0001 29.5956 75.8697 22.1724 72.134 15.7387C69.1335 10.5711 62.4411 13.351 62.4411 19.3265V59.4415C62.4411 63.3075 59.3071 66.4415 55.4411 66.4415H12.609Z" fill="#437744" fill-opacity="0.4"/>
</svg>
