<svg width="93" height="33" viewBox="0 0 93 33" fill="none" xmlns="http://www.w3.org/2000/svg">
<path fill-rule="evenodd" clip-rule="evenodd" d="M80.9336 9.69621C87.6386 9.69621 92.0804 14.3273 92.0804 21.317C92.0804 28.3065 87.6386 32.9806 80.9336 32.9806C73.9719 32.9806 69.3167 28.3065 69.3167 21.317C69.3167 14.3273 73.9719 9.69621 80.9336 9.69621ZM45.148 10.1653V32.5115L40.136 31.4879V11.1461L45.148 10.1653ZM65.2166 9.64622V14.8906L62.3285 15.4223C59.8469 15.8956 58.251 17.1779 58.251 20.0153V32.5115L53.239 31.4879V19.254C53.239 13.1822 56.8186 11.3761 62.3285 10.1154L65.2166 9.64622ZM11.9549 9.69621C13.9218 9.69621 16.3338 10.7888 17.6937 12.7467C19.0587 10.9637 21.3405 9.79375 24.141 9.75578C27.666 9.70804 32.045 11.9137 32.045 18.5238V32.5115L27.033 31.4879V18.5238C27.033 16.3062 25.419 14.7283 23.0405 14.7283C20.6619 14.7283 19.0479 16.3062 19.0479 18.5238V32.5115L14.036 31.4879V18.5238C14.036 16.3062 12.4221 14.7283 10.0436 14.7283C7.62249 14.7283 6.00851 16.3062 6.00851 18.5238V32.5115L0.996582 31.4879V11.1461L6.00851 10.1653V12.4681C7.41012 10.7623 9.53388 9.69621 11.9549 9.69621ZM80.9336 14.4131C77.0468 14.4131 74.4417 17.1575 74.4417 21.317C74.4417 25.4765 77.0468 28.2637 80.9336 28.2637C84.5631 28.2637 86.9549 25.4765 86.9549 21.317C86.9549 17.1575 84.5631 14.4131 80.9336 14.4131ZM42.7484 0.350708C44.5721 0.350708 45.78 1.61023 45.78 3.51131C45.78 5.41229 44.5721 6.68354 42.7484 6.68354C40.8549 6.68354 39.589 5.41229 39.589 3.51131C39.589 1.61023 40.8549 0.350708 42.7484 0.350708Z" fill="#6B6E6F"/>
</svg>
