<svg width="34" height="35" viewBox="0 0 34 35" fill="none" xmlns="http://www.w3.org/2000/svg">
<path d="M33.9419 15.882H23.6806L32.5669 10.6905L30.8047 7.60056L21.9173 12.7921L27.0468 3.80062L23.9938 2.01709L18.8632 11.0063V0.625488H15.3365V11.0074L10.2059 2.01709L7.15177 3.80062L12.2813 12.7898L3.39612 7.60056L1.63279 10.6905L10.519 15.882H0.257812V19.4502H10.5179L1.63279 24.6418L3.395 27.7317L12.2824 22.5402L7.15177 31.5316L10.2048 33.3152L15.3365 24.3248V34.7056H18.8632V24.1022L24.0881 33.2584L26.9514 31.5862L21.7254 22.4277L30.8024 27.7306L32.5658 24.6406L23.6806 19.4491H33.9408V15.882H33.9419ZM17.0998 22.5163C16.4703 22.5164 15.8469 22.391 15.2653 22.1472C14.6836 21.9034 14.1551 21.5461 13.7099 21.0956C13.2647 20.6451 12.9115 20.1103 12.6705 19.5217C12.4295 18.9331 12.3055 18.3022 12.3054 17.665C12.3053 17.0278 12.4292 16.3969 12.6701 15.8082C12.9109 15.2195 13.264 14.6846 13.7091 14.234C14.1542 13.7834 14.6826 13.426 15.2642 13.1821C15.8458 12.9382 16.4692 12.8126 17.0987 12.8125C18.3701 12.8124 19.5895 13.3234 20.4887 14.2332C21.3878 15.143 21.893 16.3771 21.8932 17.6639C21.8933 18.9507 21.3884 20.1848 20.4895 21.0948C19.5905 22.0048 18.3713 22.5162 17.0998 22.5163Z" fill="#6B6E6F"/>
</svg>
