<svg width="123" height="34" viewBox="0 0 123 34" fill="none" xmlns="http://www.w3.org/2000/svg">
<path d="M33.1063 4.44253C33.1063 6.55658 31.392 8.25956 29.2639 8.25956C27.1358 8.25956 25.4215 6.55658 25.4215 4.44253C25.4215 2.32847 27.0767 0.625488 29.2639 0.625488C31.4511 0.684212 33.1063 2.3872 33.1063 4.44253ZM17.2637 12.1353C17.2637 12.4877 17.2637 13.0749 17.2637 13.0749C17.2637 13.0749 15.4312 10.726 11.5297 10.726C5.08622 10.726 0.0615234 15.6 0.0615234 22.3532C0.0615234 29.0477 5.0271 33.9805 11.5297 33.9805C15.4903 33.9805 17.2637 31.5729 17.2637 31.5729V32.5712C17.2637 33.0409 17.6184 33.3933 18.0913 33.3933H22.8796V11.3132C22.8796 11.3132 18.5051 11.3132 18.0913 11.3132C17.6184 11.3132 17.2637 11.7243 17.2637 12.1353ZM17.2637 26.2877C16.377 27.5796 14.6036 28.6954 12.4755 28.6954C8.69218 28.6954 5.79559 26.3465 5.79559 22.3532C5.79559 18.36 8.69218 16.0111 12.4755 16.0111C14.5445 16.0111 16.4361 17.1856 17.2637 18.4188V26.2877ZM26.4264 11.3132H32.1014V33.3933H26.4264V11.3132ZM111.196 10.726C107.294 10.726 105.462 13.0749 105.462 13.0749V0.684213H99.787V33.3933C99.787 33.3933 104.161 33.3933 104.575 33.3933C105.048 33.3933 105.403 32.9822 105.403 32.5712V31.5729C105.403 31.5729 107.235 33.9805 111.137 33.9805C117.58 33.9805 122.605 29.0477 122.605 22.3532C122.605 15.6587 117.58 10.726 111.196 10.726ZM110.25 28.6367C108.063 28.6367 106.349 27.5209 105.462 26.229V18.36C106.349 17.1856 108.24 15.9524 110.25 15.9524C114.033 15.9524 116.93 18.3013 116.93 22.2945C116.93 26.2877 114.033 28.6367 110.25 28.6367ZM96.8313 20.2979V33.452H91.1563V20.9439C91.1563 17.303 89.9741 15.8349 86.7819 15.8349C85.0676 15.8349 83.2942 16.7158 82.171 18.0077V33.3933H76.496V11.3132H80.9887C81.4616 11.3132 81.8163 11.7243 81.8163 12.1353V13.0749C83.4715 11.3719 85.6587 10.726 87.8459 10.726C90.3287 10.726 92.3977 11.4306 94.0529 12.84C96.0628 14.4843 96.8313 16.5983 96.8313 20.2979ZM62.7225 10.726C58.8209 10.726 56.9884 13.0749 56.9884 13.0749V0.684213H51.3134V33.3933C51.3134 33.3933 55.6879 33.3933 56.1017 33.3933C56.5746 33.3933 56.9293 32.9822 56.9293 32.5712V31.5729C56.9293 31.5729 58.7618 33.9805 62.6633 33.9805C69.1068 33.9805 74.1315 29.0477 74.1315 22.3532C74.1906 15.6587 69.1659 10.726 62.7225 10.726ZM61.7766 28.6367C59.5894 28.6367 57.8751 27.5209 56.9884 26.229V18.36C57.8751 17.1856 59.7668 15.9524 61.7766 15.9524C65.5599 15.9524 68.4565 18.3013 68.4565 22.2945C68.4565 26.2877 65.5599 28.6367 61.7766 28.6367ZM46.407 10.726C48.1213 10.726 49.008 11.0196 49.008 11.0196V16.246C49.008 16.246 44.2789 14.6604 41.3232 18.0077V33.452H35.6482V11.3132C35.6482 11.3132 40.0227 11.3132 40.4365 11.3132C40.9094 11.3132 41.264 11.7243 41.264 12.1353V13.0749C42.3281 11.8417 44.6335 10.726 46.407 10.726Z" fill="#6B6E6F"/>
</svg>
