<svg width="69" height="26" viewBox="0 0 69 26" fill="none" xmlns="http://www.w3.org/2000/svg">
<path d="M0.0327148 25.1314V0.200684H4.55385V25.1314H0.0327148ZM43.3955 8.18907H47.7123V10.2566C48.6305 8.60371 50.7732 7.70741 52.6084 7.70741C54.8869 7.70741 56.7221 8.70709 57.5717 10.5304C58.8962 8.46285 60.6652 7.70741 62.8752 7.70741C65.9686 7.70741 68.9251 9.60112 68.9251 14.1463V25.1314H64.5409V15.0767C64.5409 13.2511 63.6564 11.8731 61.5822 11.8731C59.6437 11.8731 58.4876 13.3897 58.4876 15.2153V25.1326H54.0024V15.0767C54.0024 13.2511 53.0843 11.8731 51.0437 11.8731C49.0716 11.8731 47.9155 13.3556 47.9155 15.2153V25.1326H43.3955V8.18907ZM14.7713 25.6222C9.67774 25.6222 5.98944 21.7973 5.98944 16.6603C5.98944 11.605 9.66652 7.69036 14.7713 7.69036C19.9008 7.69036 23.5532 11.6414 23.5532 16.6603C23.5532 21.7609 19.8627 25.6222 14.7713 25.6222ZM14.7713 11.8368C13.5079 11.8386 12.2968 12.3476 11.4037 13.2521C10.5107 14.1566 10.0086 15.3827 10.0077 16.6614C10.0086 17.9401 10.5107 19.1662 11.4037 20.0707C12.2968 20.9752 13.5079 21.4842 14.7713 21.486C16.0345 21.4839 17.2454 20.9748 18.1382 20.0703C19.031 19.1658 19.5329 17.9399 19.5338 16.6614C19.5329 15.3829 19.031 14.1569 18.1382 13.2525C17.2454 12.348 16.0345 11.8389 14.7713 11.8368ZM33.2094 25.6222C28.1159 25.6222 24.4276 21.7973 24.4276 16.6603C24.4276 11.605 28.1046 7.69036 33.2094 7.69036C38.3389 7.69036 41.9913 11.6414 41.9913 16.6603C41.9913 21.7609 38.2985 25.6222 33.2094 25.6222ZM33.2094 11.7788C31.9315 11.781 30.7066 12.2959 29.8033 13.2108C28.9 14.1256 28.392 15.3658 28.3909 16.6591C28.392 17.9525 28.9 19.1926 29.8033 20.1075C30.7066 21.0223 31.9315 21.5373 33.2094 21.5394C34.4874 21.5373 35.7123 21.0223 36.6156 20.1075C37.5189 19.1926 38.0268 17.9525 38.028 16.6591C38.0268 15.3658 37.5189 14.1256 36.6156 13.2108C35.7123 12.2959 34.4874 11.781 33.2094 11.7788Z" fill="#6B6E6F"/>
</svg>
