<svg width="78" height="40" viewBox="0 0 78 40" fill="none" xmlns="http://www.w3.org/2000/svg">
<path d="M0.924805 39.1574H8.50653V14.5534H0.924805V39.1574ZM24.4681 39.881C21.0391 39.881 17.7506 38.5087 15.326 36.0659C12.9014 33.6231 11.5392 30.31 11.5392 26.8554C11.5392 23.4007 12.9014 20.0876 15.326 17.6448C17.7506 15.2021 21.0391 13.8297 24.4681 13.8297V21.4682C23.0499 21.4682 21.6899 22.0358 20.6871 23.0461C19.6843 24.0564 19.121 25.4266 19.121 26.8554C19.121 28.2841 19.6843 29.6544 20.6871 30.6647C21.6899 31.6749 23.0499 32.2425 24.4681 32.2425V39.881ZM38.9931 0C38.2909 -1.05418e-08 37.5955 0.139343 36.9468 0.410073C36.2981 0.680803 35.7086 1.07762 35.2121 1.57786C34.7156 2.0781 34.3217 2.67198 34.053 3.32558C33.7843 3.97918 33.6459 4.6797 33.6459 5.38715C33.6459 6.09461 33.7843 6.79513 34.053 7.44873C34.3217 8.10233 34.7156 8.6962 35.2121 9.19645C35.7086 9.69669 36.2981 10.0935 36.9468 10.3642C37.5955 10.635 38.2909 10.7743 38.9931 10.7743C40.4112 10.7743 41.7713 10.2067 42.774 9.19645C43.7768 8.18616 44.3402 6.81592 44.3402 5.38715C44.3402 3.95839 43.7768 2.58815 42.774 1.57786C41.7713 0.567574 40.4112 3.01089e-08 38.9931 0V0ZM44.3402 26.8554C44.3402 26.1479 44.2019 25.4474 43.9332 24.7938C43.6644 24.1402 43.2706 23.5463 42.774 23.0461C42.2775 22.5458 41.6881 22.149 41.0393 21.8783C40.3906 21.6076 39.6953 21.4682 38.9931 21.4682C38.2909 21.4682 37.5955 21.6076 36.9468 21.8783C36.2981 22.149 35.7086 22.5458 35.2121 23.0461C34.7156 23.5463 34.3217 24.1402 34.053 24.7938C33.7843 25.4474 33.6459 26.1479 33.6459 26.8554C33.6459 28.2841 34.2093 29.6544 35.2121 30.6647C36.2149 31.6749 37.5749 32.2425 38.9931 32.2425C40.4112 32.2425 41.7713 31.6749 42.774 30.6647C43.7768 29.6544 44.3402 28.2841 44.3402 26.8554V26.8554ZM51.9219 26.8554C51.9219 30.31 50.5598 33.6231 48.1351 36.0659C45.7105 38.5087 42.422 39.881 38.9931 39.881C35.5641 39.881 32.2756 38.5087 29.851 36.0659C27.4264 33.6231 26.0642 30.31 26.0642 26.8554C26.0642 23.4007 27.4264 20.0876 29.851 17.6448C32.2756 15.2021 35.5641 13.8297 38.9931 13.8297C42.422 13.8297 45.7105 15.2021 48.1351 17.6448C50.5598 20.0876 51.9219 23.4007 51.9219 26.8554V26.8554ZM64.1325 14.5534H54.9546V39.1574H62.5363V22.2723H64.1325C67.0055 22.2723 69.3998 24.6844 69.3998 27.6594V39.1574H77.0613V27.6594C77.0613 20.4229 71.2354 14.5534 64.1325 14.5534V14.5534Z" fill="#6B6E6F"/>
</svg>
