<svg width="127" height="31" viewBox="0 0 127 31" fill="none" xmlns="http://www.w3.org/2000/svg">
<path d="M33.2249 13.2051C31.7977 14.7021 31.001 16.6948 31.001 18.7675C31.001 20.8403 31.7977 22.833 33.2249 24.33C33.9222 25.0588 34.7604 25.6368 35.6882 26.0284C36.616 26.4199 37.6137 26.6168 38.62 26.607C41.6569 26.607 44.0975 24.8435 45.2925 22.1384L49.2732 23.173C48.4411 25.3331 46.9787 27.1902 45.0777 28.501C43.1767 29.8118 40.9258 30.5151 38.62 30.5188C37.0711 30.5493 35.5328 30.2553 34.1033 29.6555C32.6738 29.0557 31.3844 28.1633 30.3174 27.0351C29.2343 25.9489 28.3791 24.6557 27.8021 23.2318C27.2252 21.808 26.9382 20.2824 26.9582 18.7452C26.9616 15.6426 28.188 12.6675 30.3694 10.4706C32.5515 8.27275 35.5107 7.03138 38.6009 7.01759C40.9097 7.00103 43.1677 7.70566 45.0604 9.03591C46.9623 10.3445 48.4245 12.2016 49.2542 14.362L45.2735 15.3967C44.5672 13.6874 43.2429 12.3102 41.5668 11.5417C39.8908 10.7732 37.9873 10.6705 36.2389 11.2543C35.081 11.6396 34.0378 12.3103 33.2046 13.2051H33.2249ZM92.1082 16.9512C92.3568 18.0682 92.372 19.225 92.1525 20.3482H73.3235C73.8348 24.1695 76.9161 26.6605 80.7268 26.6605C82.0236 26.6756 83.3067 26.3931 84.4784 25.8347C85.6501 25.2762 86.6795 24.4566 87.4881 23.4381L91.2938 24.4281C90.3428 26.3152 88.8334 27.8601 86.9731 28.8508C85.0725 29.9482 82.919 30.5268 80.7268 30.5289C79.1888 30.5538 77.6621 30.2615 76.241 29.6702C74.8199 29.079 73.5347 28.2012 72.4647 27.0912C71.3711 26.0025 70.5079 24.703 69.9269 23.2708C69.346 21.8385 69.0593 20.3031 69.0841 18.7567C69.0871 15.6536 70.3135 12.678 72.4952 10.4808C74.6773 8.28295 77.6366 7.04157 80.7268 7.02779C83.4972 6.98777 86.1769 8.01925 88.2112 9.90873C90.3261 11.6919 91.7133 14.1947 92.1082 16.9397V16.9512ZM87.9587 16.9958C87.6875 15.2905 86.8227 13.7373 85.5181 12.6126C84.1455 11.4672 82.4153 10.8441 80.6309 10.8525C78.8466 10.8609 77.1222 11.5003 75.7604 12.6584C74.4342 13.7452 73.5642 15.2937 73.3235 16.9958H87.9587ZM122.535 7.41896L117.824 26.965L113.377 7.41896H107.342L102.864 26.9192L98.1616 7.41896H93.8359L99.807 30.1862H105.968L110.416 10.4235L114.827 30.1862H120.946L126.894 7.41896H122.535ZM11.0583 0.0758057L21.4807 30.1849H26.1603L15.738 0.0758057H11.0583ZM57.4414 11.2288V7.40622H53.1613V30.1734H57.4414V18.865C57.4414 16.7155 58.1543 14.6666 59.2808 13.5389C60.7738 12.0175 62.6399 11.3919 65.7034 11.3919H68.0959V7.39603C62.4458 7.20108 60.4301 7.7923 57.4414 11.216V11.2288ZM4.99086 20.4985C4.0045 20.4985 3.04024 20.7919 2.21979 21.3418C1.39933 21.8918 0.759469 22.6735 0.380969 23.5884C0.0980414 24.2728 -0.0300542 25.0118 0.00593143 25.7519C0.0419171 26.4921 0.241086 27.215 0.589057 27.8685C0.937028 28.5219 1.42512 29.0896 2.01808 29.5305C2.61105 29.9714 3.29409 30.2746 4.01789 30.4181C4.7412 30.5621 5.48729 30.5433 6.20253 30.3632C6.91776 30.183 7.58438 29.8459 8.15446 29.3761C8.72453 28.9063 9.18391 28.3155 9.49956 27.6462C9.81522 26.9768 9.97931 26.2455 9.98005 25.5048C9.98005 24.8469 9.85097 24.1954 9.60019 23.5876C9.34942 22.9798 8.98185 22.4276 8.51852 21.9626C8.05518 21.4975 7.50514 21.1288 6.89985 20.8773C6.29456 20.6259 5.64587 20.4967 4.99086 20.4972V20.4985ZM8.79649 10.3177C8.26589 10.3176 7.74185 10.4356 7.26207 10.6633C6.78229 10.8909 6.35868 11.2225 6.02171 11.6341C5.68474 12.0458 5.44278 12.5274 5.31324 13.0443C5.18369 13.5611 5.16977 14.1003 5.27248 14.6232C5.37595 15.1464 5.59374 15.6399 5.91013 16.0682C6.22653 16.4965 6.63364 16.849 7.10209 17.1001C7.57054 17.3512 8.08864 17.4947 8.61901 17.5203C9.14939 17.5459 9.6788 17.4529 10.1691 17.2481C10.8245 16.9748 11.3845 16.5126 11.7785 15.9197C12.1725 15.3269 12.3827 14.6301 12.3827 13.9173C12.382 12.9624 12.0039 12.0469 11.3314 11.3719C10.6589 10.6969 9.74717 10.3177 8.79649 10.3177Z" fill="#6B6E6F"/>
</svg>
